# xmcd CD database file
#
# Track frame offsets:
#	150
#	21499
#	39470
#	63841
#	82715
#	97697
#	109703
#	117451
#	139492
#
# Disc length: 2052 seconds
#
# Revision: 0
# Processed by: cddbd v1.5.1PL0 Copyright (c) Steve Scherf et al.
# Submitted via: CDex 1.51
#
DISCID=6d080209
DTITLE=Mansel Williams - The Demo
DYEAR=1998
DGENRE=Jazz
TTITLE0='Round Midnight (Monk/Williams)
TTITLE1=Invitation (Kaper/Webster)
TTITLE2=Trying Times (Hathaway/Hutson)
TTITLE3=I've Got You Under My Skin (Cole Porter)
TTITLE4=Blues for Chris (Mansel Williams)
TTITLE5=Speak Low (Weill/Nash)
TTITLE6=Anthropology (Parker/Gillespie)
TTITLE7=What A Wonderful World (Theile/Weiss)
TTITLE8=How Sweet It Is (Holland/Dozier)
EXTD=YEAR: 1998
EXTT0=
EXTT1=
EXTT2=
EXTT3=
EXTT4=
EXTT5=
EXTT6=
EXTT7=
EXTT8=
PLAYORDER=
